<mxfile host="app.diagrams.net" agent="Mozilla/5.0 (Windows NT 10.0; Win64; x64; rv:143.0) Gecko/20100101 Firefox/143.0" version="28.2.5">
  <diagram name="Seite-1" id="mH0r5GfesXjRC0VkhU3A">
    <mxGraphModel dx="1426" dy="787" grid="1" gridSize="10" guides="1" tooltips="1" connect="1" arrows="1" fold="1" page="1" pageScale="1" pageWidth="827" pageHeight="1169" math="0" shadow="0">
      <root>
        <mxCell id="0" />
        <mxCell id="1" parent="0" />
        <mxCell id="DzFz5KmtpnU6nOFjtX_Q-2" value="Host" style="rounded=1;whiteSpace=wrap;html=1;strokeColor=light-dark(#314354,#78EE97);fontColor=light-dark(#FFFFFF,#FFFFFF);fillColor=light-dark(#647687,#2D2D2D);align=left;verticalAlign=top;arcSize=5;fontStyle=1;fontSize=16;spacingLeft=6;" vertex="1" parent="1">
          <mxGeometry x="40" y="210" width="760" height="390" as="geometry" />
        </mxCell>
        <mxCell id="DzFz5KmtpnU6nOFjtX_Q-3" value="OS" style="rounded=1;whiteSpace=wrap;html=1;strokeColor=light-dark(#314354,#78EE97);fontColor=light-dark(#FFFFFF,#FFFFFF);fillColor=light-dark(#647687,#2D2D2D);align=center;verticalAlign=middle;arcSize=5;fontStyle=1;fontSize=16;spacingLeft=6;" vertex="1" parent="1">
          <mxGeometry x="80" y="560" width="680" height="40" as="geometry" />
        </mxCell>
        <mxCell id="DzFz5KmtpnU6nOFjtX_Q-4" value="iptables" style="rounded=1;whiteSpace=wrap;html=1;strokeColor=light-dark(#314354,#78EE97);fontColor=light-dark(#FFFFFF,#FFFFFF);fillColor=light-dark(#647687,#2D2D2D);align=center;verticalAlign=middle;arcSize=5;fontStyle=1;fontSize=16;spacingLeft=6;" vertex="1" parent="1">
          <mxGeometry x="120" y="520" width="200" height="40" as="geometry" />
        </mxCell>
        <mxCell id="DzFz5KmtpnU6nOFjtX_Q-5" value="kube-proxy" style="rounded=1;whiteSpace=wrap;html=1;strokeColor=light-dark(#314354,#78EE97);fontColor=light-dark(#FFFFFF,#FFFFFF);fillColor=light-dark(#647687,#2D2D2D);align=center;verticalAlign=middle;arcSize=5;fontStyle=1;fontSize=16;spacingLeft=6;" vertex="1" parent="1">
          <mxGeometry x="120" y="440" width="240" height="40" as="geometry" />
        </mxCell>
        <mxCell id="DzFz5KmtpnU6nOFjtX_Q-6" value="container engine" style="rounded=1;whiteSpace=wrap;html=1;strokeColor=light-dark(#314354,#78EE97);fontColor=light-dark(#FFFFFF,#FFFFFF);fillColor=light-dark(#647687,#2D2D2D);align=center;verticalAlign=middle;arcSize=5;fontStyle=1;fontSize=16;spacingLeft=6;" vertex="1" parent="1">
          <mxGeometry x="520" y="520" width="200" height="40" as="geometry" />
        </mxCell>
        <mxCell id="DzFz5KmtpnU6nOFjtX_Q-7" value="kubelet" style="rounded=1;whiteSpace=wrap;html=1;strokeColor=light-dark(#314354,#78EE97);fontColor=light-dark(#FFFFFF,#FFFFFF);fillColor=light-dark(#647687,#2D2D2D);align=center;verticalAlign=middle;arcSize=5;fontStyle=1;fontSize=16;spacingLeft=6;" vertex="1" parent="1">
          <mxGeometry x="480" y="440" width="240" height="40" as="geometry" />
        </mxCell>
        <mxCell id="DzFz5KmtpnU6nOFjtX_Q-8" value="ETCD" style="rounded=1;whiteSpace=wrap;html=1;strokeColor=light-dark(#314354,#78EE97);fontColor=light-dark(#FFFFFF,#FFFFFF);fillColor=light-dark(#647687,#2D2D2D);align=center;verticalAlign=middle;arcSize=5;fontStyle=1;fontSize=16;spacingLeft=6;" vertex="1" parent="1">
          <mxGeometry x="360" y="520" width="120" height="40" as="geometry" />
        </mxCell>
        <mxCell id="DzFz5KmtpnU6nOFjtX_Q-9" value="kube-apiserver" style="rounded=1;whiteSpace=wrap;html=1;strokeColor=light-dark(#314354,#78EE97);fontColor=light-dark(#FFFFFF,#FFFFFF);fillColor=light-dark(#647687,#2D2D2D);align=center;verticalAlign=middle;arcSize=5;fontStyle=1;fontSize=16;spacingLeft=6;" vertex="1" parent="1">
          <mxGeometry x="300" y="360" width="240" height="40" as="geometry" />
        </mxCell>
        <mxCell id="DzFz5KmtpnU6nOFjtX_Q-10" value="" style="endArrow=classic;startArrow=classic;html=1;rounded=0;strokeColor=light-dark(#314354,#78EE97);exitX=0.5;exitY=0;exitDx=0;exitDy=0;entryX=0.5;entryY=1;entryDx=0;entryDy=0;strokeWidth=2;" edge="1" parent="1" source="DzFz5KmtpnU6nOFjtX_Q-8" target="DzFz5KmtpnU6nOFjtX_Q-9">
          <mxGeometry width="50" height="50" relative="1" as="geometry">
            <mxPoint x="390" y="430" as="sourcePoint" />
            <mxPoint x="440" y="380" as="targetPoint" />
          </mxGeometry>
        </mxCell>
        <mxCell id="DzFz5KmtpnU6nOFjtX_Q-11" value="" style="endArrow=classic;startArrow=classic;html=1;rounded=0;strokeColor=light-dark(#314354,#78EE97);exitX=0.5;exitY=0;exitDx=0;exitDy=0;entryX=0.5;entryY=1;entryDx=0;entryDy=0;strokeWidth=2;" edge="1" parent="1" source="DzFz5KmtpnU6nOFjtX_Q-6" target="DzFz5KmtpnU6nOFjtX_Q-7">
          <mxGeometry width="50" height="50" relative="1" as="geometry">
            <mxPoint x="430" y="530" as="sourcePoint" />
            <mxPoint x="430" y="410" as="targetPoint" />
          </mxGeometry>
        </mxCell>
        <mxCell id="DzFz5KmtpnU6nOFjtX_Q-12" value="" style="endArrow=classic;startArrow=classic;html=1;rounded=0;strokeColor=light-dark(#314354,#78EE97);exitX=0.5;exitY=0;exitDx=0;exitDy=0;entryX=0.5;entryY=1;entryDx=0;entryDy=0;strokeWidth=2;" edge="1" parent="1" source="DzFz5KmtpnU6nOFjtX_Q-4" target="DzFz5KmtpnU6nOFjtX_Q-5">
          <mxGeometry width="50" height="50" relative="1" as="geometry">
            <mxPoint x="630" y="530" as="sourcePoint" />
            <mxPoint x="610" y="490" as="targetPoint" />
          </mxGeometry>
        </mxCell>
        <mxCell id="DzFz5KmtpnU6nOFjtX_Q-13" value="kube-scheduler" style="rounded=1;whiteSpace=wrap;html=1;strokeColor=light-dark(#314354,#78EE97);fontColor=light-dark(#FFFFFF,#FFFFFF);fillColor=light-dark(#647687,#2D2D2D);align=center;verticalAlign=middle;arcSize=5;fontStyle=1;fontSize=16;spacingLeft=6;" vertex="1" parent="1">
          <mxGeometry x="420" y="280" width="240" height="40" as="geometry" />
        </mxCell>
        <mxCell id="DzFz5KmtpnU6nOFjtX_Q-14" value="kube-controller-manager" style="rounded=1;whiteSpace=wrap;html=1;strokeColor=light-dark(#314354,#78EE97);fontColor=light-dark(#FFFFFF,#FFFFFF);fillColor=light-dark(#647687,#2D2D2D);align=center;verticalAlign=middle;arcSize=5;fontStyle=1;fontSize=16;spacingLeft=6;" vertex="1" parent="1">
          <mxGeometry x="180" y="280" width="240" height="40" as="geometry" />
        </mxCell>
        <mxCell id="DzFz5KmtpnU6nOFjtX_Q-15" value="" style="edgeStyle=elbowEdgeStyle;elbow=vertical;endArrow=classic;html=1;curved=0;rounded=0;endSize=8;startSize=8;strokeColor=light-dark(#314354,#78EE97);entryX=0.5;entryY=0;entryDx=0;entryDy=0;exitX=1;exitY=0.5;exitDx=0;exitDy=0;startArrow=classic;startFill=1;strokeWidth=2;" edge="1" parent="1" source="DzFz5KmtpnU6nOFjtX_Q-9" target="DzFz5KmtpnU6nOFjtX_Q-7">
          <mxGeometry width="50" height="50" relative="1" as="geometry">
            <mxPoint x="390" y="430" as="sourcePoint" />
            <mxPoint x="440" y="380" as="targetPoint" />
            <Array as="points">
              <mxPoint x="570" y="380" />
            </Array>
          </mxGeometry>
        </mxCell>
        <mxCell id="DzFz5KmtpnU6nOFjtX_Q-16" value="" style="edgeStyle=elbowEdgeStyle;elbow=vertical;endArrow=classic;html=1;curved=0;rounded=0;endSize=8;startSize=8;strokeColor=light-dark(#314354,#78EE97);entryX=0.5;entryY=0;entryDx=0;entryDy=0;exitX=0;exitY=0.5;exitDx=0;exitDy=0;startArrow=classic;startFill=1;strokeWidth=2;" edge="1" parent="1" source="DzFz5KmtpnU6nOFjtX_Q-9" target="DzFz5KmtpnU6nOFjtX_Q-5">
          <mxGeometry width="50" height="50" relative="1" as="geometry">
            <mxPoint x="550" y="310" as="sourcePoint" />
            <mxPoint x="610" y="450" as="targetPoint" />
            <Array as="points">
              <mxPoint x="270" y="380" />
            </Array>
          </mxGeometry>
        </mxCell>
        <mxCell id="DzFz5KmtpnU6nOFjtX_Q-17" value="" style="endArrow=classic;startArrow=classic;html=1;rounded=0;strokeColor=light-dark(#314354,#78EE97);exitX=0.5;exitY=0;exitDx=0;exitDy=0;entryX=0.5;entryY=1;entryDx=0;entryDy=0;strokeWidth=2;" edge="1" parent="1" source="DzFz5KmtpnU6nOFjtX_Q-9" target="DzFz5KmtpnU6nOFjtX_Q-14">
          <mxGeometry width="50" height="50" relative="1" as="geometry">
            <mxPoint x="430" y="530" as="sourcePoint" />
            <mxPoint x="430" y="410" as="targetPoint" />
          </mxGeometry>
        </mxCell>
        <mxCell id="DzFz5KmtpnU6nOFjtX_Q-18" value="" style="endArrow=classic;startArrow=classic;html=1;rounded=0;strokeColor=light-dark(#314354,#78EE97);exitX=0.5;exitY=0;exitDx=0;exitDy=0;entryX=0.5;entryY=1;entryDx=0;entryDy=0;strokeWidth=2;" edge="1" parent="1" source="DzFz5KmtpnU6nOFjtX_Q-9" target="DzFz5KmtpnU6nOFjtX_Q-13">
          <mxGeometry width="50" height="50" relative="1" as="geometry">
            <mxPoint x="430" y="370" as="sourcePoint" />
            <mxPoint x="430" y="330" as="targetPoint" />
          </mxGeometry>
        </mxCell>
      </root>
    </mxGraphModel>
  </diagram>
</mxfile>
